<svg width="28" height="23" viewBox="0 0 28 23" fill="none" xmlns="http://www.w3.org/2000/svg">
<path d="M25.1875 0.171875H26.6875C25.0312 7.17188 24.0312 11.75 23.6875 13.9062C24.8125 14.3438 25.7031 15.0156 26.3594 15.9219C27.0469 16.7969 27.3906 17.7656 27.3906 18.8281C27.3906 19.8906 26.875 20.8125 25.8438 21.5938C24.8438 22.3438 23.4375 22.7188 21.625 22.7188C19.8125 22.7188 18.3281 22.2969 17.1719 21.4531C16.0469 20.6094 15.4844 19.4219 15.4844 17.8906C15.4844 16.3594 16.7188 13.4375 19.1875 9.125C21.6562 4.8125 23.6562 1.82812 25.1875 0.171875ZM9.8125 0.171875H11.3125C9.65625 7.17188 8.65625 11.75 8.3125 13.9062C9.4375 14.3438 10.3281 15.0156 10.9844 15.9219C11.6719 16.7969 12.0156 17.7656 12.0156 18.8281C12.0156 19.8906 11.5 20.8125 10.4688 21.5938C9.46875 22.3438 8.0625 22.7188 6.25 22.7188C4.4375 22.7188 2.95312 22.2969 1.79688 21.4531C0.671875 20.6094 0.109375 19.4219 0.109375 17.8906C0.109375 16.3594 1.34375 13.4375 3.8125 9.125C6.28125 4.8125 8.28125 1.82812 9.8125 0.171875Z" fill="#F4B5D9"/>
</svg>
