<svg width="28" height="23" viewBox="0 0 28 23" fill="none" xmlns="http://www.w3.org/2000/svg">
<path d="M2.8125 22.8281H1.3125C2.96875 15.8281 3.96875 11.25 4.3125 9.09375C3.1875 8.65625 2.29688 7.98438 1.64063 7.07812C0.953125 6.20312 0.609375 5.23437 0.609375 4.17187C0.609375 3.10937 1.125 2.1875 2.15625 1.40625C3.15625 0.65625 4.5625 0.28125 6.375 0.28125C8.1875 0.28125 9.67188 0.703125 10.8281 1.54688C11.9531 2.39062 12.5156 3.57812 12.5156 5.10938C12.5156 6.64062 11.2813 9.5625 8.8125 13.875C6.34375 18.1875 4.34375 21.1719 2.8125 22.8281ZM18.1875 22.8281H16.6875C18.3438 15.8281 19.3438 11.25 19.6875 9.09375C18.5625 8.65625 17.6719 7.98438 17.0156 7.07812C16.3281 6.20312 15.9844 5.23438 15.9844 4.17188C15.9844 3.10938 16.5 2.1875 17.5313 1.40625C18.5313 0.65625 19.9375 0.28125 21.75 0.28125C23.5625 0.28125 25.0469 0.703125 26.2031 1.54688C27.3281 2.39062 27.8906 3.57812 27.8906 5.10938C27.8906 6.64062 26.6563 9.5625 24.1875 13.875C21.7188 18.1875 19.7188 21.1719 18.1875 22.8281Z" fill="#F4B5D9"/>
</svg>
